<svg width="20" height="20" viewBox="0 0 20 20" fill="none" xmlns="http://www.w3.org/2000/svg">
<path d="M17.7778 2.77777H2.22222C1.63285 2.77777 1.06762 3.0119 0.650874 3.42864C0.234126 3.84539 0 4.41062 0 4.99999L0 15C0 15.5894 0.234126 16.1546 0.650874 16.5713C1.06762 16.9881 1.63285 17.2222 2.22222 17.2222H17.7778C18.3671 17.2222 18.9324 16.9881 19.3491 16.5713C19.7659 16.1546 20 15.5894 20 15V4.99999C20 4.41062 19.7659 3.84539 19.3491 3.42864C18.9324 3.0119 18.3671 2.77777 17.7778 2.77777Z" fill="#006C35"/>
<path d="M4.95499 7.80557C5.3061 7.8389 5.11221 7.21168 5.23943 7.09779C5.26332 7.04168 5.30777 7.04113 5.3111 7.11224V7.64446C5.30777 7.81779 5.42166 7.86835 5.50999 7.90446C5.60221 7.89724 5.66332 7.90057 5.69943 7.99001L5.74277 8.91113C5.74277 8.91113 5.9561 8.97224 5.9661 8.39279C5.97666 8.05279 5.89832 7.76835 5.94443 7.70224C5.9461 7.63724 6.02888 7.63335 6.08666 7.66501C6.17832 7.72946 6.21943 7.80946 6.36166 7.77779C6.57888 7.71835 6.70888 7.61279 6.71221 7.44613C6.69943 7.28779 6.68166 7.12946 6.61332 6.97113C6.62277 6.94224 6.57166 6.86779 6.5811 6.8389C6.61999 6.90001 6.67943 6.89501 6.69277 6.8389C6.6561 6.71724 6.59888 6.60057 6.50554 6.55001C6.42888 6.48224 6.31666 6.49613 6.27554 6.63724C6.25666 6.79946 6.33443 6.99279 6.45221 7.15001C6.47721 7.21168 6.51277 7.3139 6.49721 7.40613C6.43443 7.44168 6.3711 7.42724 6.31888 7.37168C6.31888 7.37168 6.1461 7.24224 6.1461 7.21335C6.19221 6.92001 6.15666 6.88668 6.1311 6.80557C6.11332 6.69335 6.05999 6.65724 6.01666 6.58057C5.97332 6.53501 5.91499 6.53501 5.88721 6.58057C5.81054 6.71279 5.8461 6.99724 5.90166 7.12446C5.9411 7.24113 6.00221 7.31501 5.97332 7.31501C5.94943 7.38113 5.90054 7.36557 5.86499 7.28946C5.81388 7.13168 5.80388 6.89668 5.80388 6.79057C5.78832 6.65946 5.77166 6.3789 5.68554 6.30779C5.63277 6.23613 5.55443 6.27057 5.52721 6.33668C5.52166 6.46668 5.52054 6.59724 5.53554 6.71779C5.59443 6.92835 5.61332 7.1139 5.64221 7.33001C5.64999 7.61946 5.47499 7.45557 5.48277 7.31224C5.52332 7.12613 5.51277 6.83279 5.47666 6.75835C5.44832 6.68446 5.41443 6.66557 5.34554 6.67779C5.2911 6.67335 5.14999 6.82779 5.10999 7.08335C5.10999 7.08335 5.0761 7.21501 5.06166 7.33224C5.04221 7.46446 4.95555 7.55779 4.89443 7.3139C4.84166 7.13668 4.80943 6.69946 4.7211 6.80168C4.69554 7.14335 4.66499 7.74446 4.95499 7.80557Z" fill="white"/>
<path d="M5.48331 8.05499C5.19442 8.06055 4.77165 8.43444 4.75998 8.64166C5.06442 8.49499 5.36387 8.35388 5.67387 8.20277C5.62387 8.12777 5.67109 8.06055 5.48331 8.05499Z" fill="white"/>
<path d="M7.07612 9.17557C7.21001 8.72946 7.05445 8.40057 7.12723 8.40224C7.28112 8.56835 7.49667 8.42446 7.54389 8.36668C7.56445 8.33779 7.61501 8.3189 7.65056 8.35668C7.77112 8.44335 7.98334 8.40224 8.02723 8.25001C8.05503 8.09713 8.07211 7.9425 8.07834 7.78724C7.98001 7.81779 7.90667 7.83835 7.90001 7.8789L7.87945 8.01112C7.87112 8.0539 7.78612 8.05557 7.78278 8.00112C7.74556 7.83168 7.59112 7.80946 7.49778 8.07224C7.43501 8.12335 7.32167 8.13335 7.30945 8.05724C7.32445 7.88112 7.25334 7.85724 7.11112 7.94001C7.06556 7.59057 7.01945 7.25668 6.97389 6.90724C7.03334 6.90557 7.08778 6.94946 7.14167 6.88168C7.08223 6.69668 6.95667 6.3189 6.88723 6.29168C6.85334 6.25057 6.82445 6.27612 6.78056 6.28668C6.70612 6.31057 6.63667 6.37501 6.65834 6.50001C6.74667 7.03612 6.80445 7.44446 6.89223 7.98057C6.90556 8.04335 6.85334 8.12612 6.78556 8.11779C6.67056 8.04001 6.64167 7.88224 6.44501 7.8889C6.30223 7.89057 6.13945 8.04501 6.11945 8.19446C6.09556 8.31279 6.08723 8.44168 6.11945 8.54557C6.21945 8.66557 6.34001 8.6539 6.44501 8.62668C6.53112 8.59112 6.60278 8.50446 6.63278 8.52501C6.65334 8.55001 6.63778 8.83501 6.22612 9.0539C5.97667 9.16557 5.77834 9.19112 5.67167 8.98779C5.60556 8.86057 5.67667 8.37724 5.51389 8.48946C5.03223 9.73112 6.64167 9.90335 6.82167 8.54057C6.83889 8.48446 6.90667 8.42835 6.91834 8.52001C6.88112 9.75446 5.67334 9.83946 5.46834 9.45112C5.41723 9.35946 5.40223 9.15612 5.39723 9.0339C5.36667 8.79112 5.23945 8.88446 5.21945 9.12501C5.19889 9.2589 5.20445 9.29668 5.20445 9.42501C5.26834 10.4 6.82389 9.98113 7.07612 9.17557ZM6.47612 8.33224C6.46612 8.35112 6.42223 8.34335 6.39001 8.34335C6.35334 8.34168 6.33612 8.33557 6.31389 8.30612C6.30389 8.27279 6.33501 8.24112 6.34889 8.21612C6.36612 8.18668 6.45889 8.15612 6.49167 8.23835C6.49762 8.25397 6.49932 8.2709 6.49658 8.28739C6.49385 8.30389 6.48679 8.31936 6.47612 8.33224Z" fill="white"/>
<path d="M7.55666 7.2272C7.65333 7.19165 8.11166 6.66776 8.11166 6.66776C8.08777 6.6472 8.06666 6.6322 8.04277 6.61165C8.01722 6.58943 8.01999 6.5672 8.04277 6.54554C8.1561 6.47943 8.11999 6.33443 8.06055 6.26831C8.02204 6.24966 7.97974 6.24016 7.93695 6.24054C7.89417 6.24093 7.85205 6.25119 7.81388 6.27054C7.73444 6.34665 7.71555 6.46887 7.77833 6.54554C7.83944 6.57443 7.90055 6.63609 7.85999 6.66998C7.67277 6.86998 7.15944 7.21498 7.21888 7.2272C7.23166 7.24387 7.54666 7.24331 7.55666 7.2272ZM7.8961 6.40443C7.92555 6.3972 7.96333 6.42331 7.9811 6.4622C7.99888 6.50109 7.98944 6.53831 7.96055 6.54554H7.95944C7.93055 6.55276 7.89277 6.52665 7.87499 6.48776C7.85777 6.44831 7.86722 6.41165 7.8961 6.40443ZM4.92333 9.58776C4.84777 9.74165 4.8161 9.63609 4.80944 9.54998C4.80096 9.40536 4.80823 9.26025 4.8311 9.1172C4.84999 8.99498 4.8311 9.0322 4.79222 9.08165C4.62055 9.35498 4.60555 9.76387 4.70055 9.88554C4.75055 9.94331 4.83333 9.96887 4.89499 9.94998C5.00277 9.90331 5.04999 9.68443 5.02444 9.60498C4.98777 9.54887 4.95944 9.53998 4.92333 9.58776ZM10.5794 6.69443C10.7772 6.95998 10.965 7.23054 11.1489 7.50609C11.1852 7.74424 11.2111 7.97887 11.2267 8.20998C11.2572 8.65665 11.2661 9.13998 11.2383 9.61054C11.3217 9.61387 11.4567 9.47498 11.5033 9.2722C11.5339 8.99165 11.4922 8.4922 11.4894 8.32665C11.4858 8.22288 11.4808 8.11917 11.4744 8.01554C11.6933 8.37331 11.9067 8.74776 12.115 9.16387C12.1911 9.12831 12.1744 8.70276 12.13 8.64276C11.9633 8.28554 11.7339 7.9322 11.6605 7.79665C11.6333 7.74665 11.5405 7.60443 11.43 7.44165C11.4201 7.31177 11.4046 7.18238 11.3833 7.05387C11.3489 6.81609 11.4817 7.07998 11.4633 6.94165C11.4205 6.70387 11.2883 6.54331 11.1339 6.32554C11.0839 6.25498 11.0855 6.24054 11.0083 6.34276C10.9816 6.40417 10.969 6.47083 10.9717 6.53776C10.9472 6.50252 10.9215 6.46823 10.8944 6.43498L10.6417 6.21943C10.5855 6.17943 10.4489 6.1072 10.4244 6.2272C10.4137 6.31134 10.4178 6.39672 10.4367 6.47943C10.4511 6.53887 10.5372 6.63776 10.5794 6.69443ZM10.9905 6.68109C11.0011 6.7272 11.0122 6.77331 11.0194 6.82054L11.0278 6.86554C11.0044 6.83303 10.9801 6.80117 10.955 6.76998C10.8639 6.6622 10.9394 6.68554 10.9905 6.68109Z" fill="white"/>
<path d="M12.1772 9.27389C11.9839 9.47556 11.705 9.72389 11.4017 9.83889C11.3689 9.87556 11.4828 10.0328 11.6294 10.0328C11.8755 10.0039 12.0922 9.86556 12.2928 9.50167C12.3467 9.41722 12.4411 9.23556 12.4433 9.09445C12.4617 8.26889 12.4022 7.62611 12.2783 7.02944C12.27 6.98157 12.2723 6.93246 12.285 6.88556C12.3005 6.86667 12.355 6.88556 12.3839 6.83889C12.4255 6.79556 12.2722 6.44 12.1844 6.30333C12.1533 6.24222 12.1428 6.20111 12.0911 6.31056C12.0367 6.39945 12.0005 6.55444 12.005 6.69889C12.1222 7.51167 12.1583 8.22333 12.235 9.03611C12.2411 9.11444 12.2294 9.22889 12.1772 9.27389ZM15.4161 7.21278C15.4078 7.155 15.3822 7.02056 15.3922 7.00333C15.4078 6.96222 15.4883 7.00778 15.5172 6.96056C15.5594 6.91778 15.3094 6.59667 15.2222 6.46C15.1905 6.39889 15.18 6.35778 15.1283 6.46722C15.0739 6.55611 15.055 6.71556 15.0767 6.85556C15.2072 7.73833 15.3044 8.40167 15.3244 9.18444C15.3128 9.25889 15.3105 9.29889 15.2755 9.39222C15.1983 9.49111 15.1133 9.61444 15.0328 9.67444C14.9528 9.73389 14.7822 9.79111 14.7261 9.835C14.55 9.93778 14.5494 10.055 14.6928 10.0589C14.9383 10.03 15.2294 10.01 15.43 9.70667C15.4839 9.62222 15.5478 9.39278 15.5505 9.25167C15.5689 8.42611 15.54 7.80944 15.4161 7.21278ZM13.5544 7.9C13.5567 7.78667 13.5672 7.63667 13.5733 7.54278C13.5761 7.50778 13.5844 7.46833 13.6178 7.45945C13.6517 7.45056 13.7117 7.49389 13.7122 7.45722C13.7055 7.38556 13.6911 7.27889 13.6505 7.22833C13.595 7.14611 13.4478 7.16611 13.4217 7.295C13.4222 7.34278 13.4439 7.36833 13.44 7.41167C13.4333 7.43611 13.4078 7.45278 13.3472 7.42389C13.3572 7.415 13.3078 7.34667 13.3078 7.34667C13.2605 7.31778 13.1972 7.34833 13.1567 7.37445C13.1421 7.40251 13.1335 7.43323 13.1312 7.46474C13.1289 7.49626 13.133 7.52791 13.1433 7.55778C13.21 7.68389 13.4428 7.89778 13.5544 7.9Z" fill="white"/>
<path d="M13.4761 6.93386L13.9722 7.54108C14.0083 7.99997 14.0178 8.37552 14.0533 8.83441C14.0483 9.02886 13.9883 9.1983 13.9311 9.22274C13.9311 9.22274 13.845 9.27274 13.7872 9.21774C13.745 9.20052 13.5767 8.93719 13.5767 8.93719C13.4906 8.8583 13.4339 8.88052 13.3728 8.93719C13.2039 9.09997 13.1278 9.40552 13.0133 9.61552C12.9833 9.66274 12.9 9.70274 12.8072 9.61219C12.5722 9.29052 12.71 8.8333 12.6811 8.95108C12.4717 9.18719 12.5639 9.57774 12.6111 9.66219C12.68 9.79997 12.7361 9.88886 12.8706 9.95719C12.9928 10.0472 13.0883 9.99052 13.1406 9.92774C13.2639 9.79941 13.2656 9.47441 13.3233 9.40886C13.3633 9.29052 13.4661 9.31052 13.5156 9.3633C13.5612 9.42685 13.6212 9.4788 13.6906 9.51497C13.8056 9.61663 13.9428 9.63497 14.0778 9.54219C14.17 9.49052 14.2306 9.4233 14.2844 9.29052C14.3444 9.13052 14.3117 8.39497 14.2994 7.95386C14.3856 8.06497 14.4694 8.18108 14.5544 8.29719C14.5917 8.66552 14.6128 9.03219 14.6006 9.40663C14.5917 9.48163 14.8617 9.18441 14.8594 9.0433V8.72886C14.9894 8.92441 15.1161 9.12608 15.235 9.33941C15.3094 9.30052 15.285 8.88108 15.2378 8.8233C15.1006 8.5933 14.9178 8.35386 14.7917 8.18274C14.7833 8.16108 14.7789 8.13663 14.7689 8.11608C14.7183 7.99886 14.75 7.90441 14.7261 7.77997C14.7028 7.65497 14.7089 7.4683 14.6728 7.31997C14.6628 7.26219 14.6328 7.07663 14.6417 7.05941C14.6561 7.01774 14.7117 7.06052 14.7389 7.01274C14.7794 6.9683 14.5983 6.49886 14.5061 6.36441C14.4728 6.30441 14.4128 6.32497 14.3383 6.42274C14.27 6.48719 14.2956 6.63386 14.3217 6.7733C14.3867 7.11108 14.4411 7.43497 14.4878 7.75552C14.3879 7.62271 14.2869 7.49067 14.185 7.35941L14.1806 7.33497C14.1806 7.32886 14.1656 7.04386 14.1522 6.97608C14.15 6.94886 14.1433 6.94052 14.1722 6.94386C14.2028 6.96941 14.2067 6.97108 14.2261 6.97997C14.2572 6.98552 14.2844 6.93274 14.2661 6.88441L13.9789 6.35552C13.9561 6.33274 13.9261 6.3083 13.89 6.36163C13.8675 6.38112 13.8494 6.40527 13.8371 6.43242C13.8249 6.45957 13.8186 6.48906 13.8189 6.51886C13.8278 6.64386 13.8494 6.77163 13.8578 6.89719L13.87 6.96497C13.8572 6.94997 13.8417 6.93108 13.835 6.92441C13.5911 6.66774 13.9472 6.88274 13.7883 6.68441C13.6539 6.53663 13.615 6.49052 13.4994 6.40163C13.4417 6.36441 13.4067 6.2933 13.3878 6.41441C13.3789 6.52064 13.3761 6.6273 13.3794 6.73386C13.3794 6.78497 13.4311 6.8783 13.4761 6.93386ZM8.53111 7.5333C8.67111 7.59108 8.76055 7.32441 8.81833 7.03219C8.85722 6.94997 8.88722 6.94108 8.90722 6.9833C8.90222 7.37219 8.935 7.4583 9.035 7.57663C9.25778 7.74886 9.44222 7.5983 9.45722 7.58386L9.63055 7.41052C9.66889 7.36997 9.72055 7.36719 9.775 7.4033C9.82833 7.45108 9.82111 7.53441 9.93444 7.59219C10.03 7.63052 10.2344 7.60108 10.2817 7.51886C10.3456 7.40997 10.3611 7.37219 10.39 7.33108C10.4356 7.27052 10.5133 7.29774 10.5133 7.31663C10.5061 7.35052 10.4606 7.38441 10.4917 7.44497C10.5461 7.48552 10.5583 7.45941 10.5906 7.45052C10.7039 7.39608 10.7883 7.15052 10.7883 7.15052C10.7933 7.05886 10.7422 7.06663 10.7089 7.08552C10.6656 7.11163 10.6628 7.12052 10.6194 7.14719C10.5639 7.15552 10.4567 7.19219 10.4039 7.10997C10.3494 7.01108 10.3483 6.8733 10.3072 6.77386C10.3072 6.76663 10.235 6.61663 10.3022 6.60719C10.3361 6.6133 10.4078 6.63219 10.4194 6.57219C10.4544 6.5133 10.3433 6.34552 10.2678 6.26052C10.2017 6.1883 10.11 6.17941 10.0217 6.2533C9.95944 6.31052 9.96833 6.37386 9.95611 6.43441C9.94566 6.47712 9.9455 6.52171 9.95564 6.56449C9.96578 6.60728 9.98593 6.64704 10.0144 6.68052C10.0761 6.80219 10.1889 6.95941 10.1517 7.17941C10.1517 7.17941 10.0861 7.28386 9.97111 7.27052C9.92333 7.25997 9.84555 7.23941 9.80444 6.93386C9.77333 6.70219 9.81222 6.3783 9.71389 6.22663C9.67833 6.13497 9.65278 6.04663 9.56611 6.2033C9.54278 6.26497 9.44278 6.3583 9.51555 6.55108C9.575 6.67274 9.59889 6.87108 9.57222 7.09219C9.53111 7.15497 9.52222 7.17608 9.46833 7.23886C9.39277 7.31997 9.31111 7.29941 9.24833 7.26886C9.18944 7.22941 9.14389 7.20886 9.11722 7.0833C9.12222 6.8833 9.13333 6.55552 9.09666 6.48608C9.04278 6.3783 8.95389 6.41719 8.91555 6.44997C8.73278 6.61719 8.64278 6.89886 8.58778 7.12274C8.53722 7.28608 8.48333 7.23941 8.44555 7.1733C8.35333 7.08663 8.34722 6.41052 8.23555 6.52219C8.05611 7.02997 8.33666 7.58774 8.53111 7.5333Z" fill="white"/>
<path d="M11.1872 8.62445L11.1339 8.59389L10.0889 8.58889C10.035 8.56834 10.0511 8.55056 10.0889 8.53611C10.3383 8.50223 10.7822 8.43 10.8116 8.00389C10.8066 7.78223 10.7161 7.63667 10.4439 7.59667C10.2444 7.61223 10.1016 7.80611 10.1244 8.01889C10.115 8.07667 10.1433 8.18889 10.085 8.20167C9.70109 8.23667 9.28276 8.47667 9.26887 8.64889C9.24554 8.665 9.19332 8.61834 9.19998 8.545C9.18137 8.23134 9.09109 7.92611 8.93609 7.65278C8.81498 7.53167 8.85276 7.57167 8.77165 7.62889C8.71943 7.68889 8.70998 7.73 8.71276 7.84945C8.71276 7.85389 8.81054 8.12667 8.89332 8.31778C8.94832 8.51389 8.99998 8.73778 8.96276 8.94945C8.83387 9.22945 8.57443 9.48056 8.32443 9.61667C8.19554 9.65834 8.08498 9.64334 8.05776 9.61445C7.97832 9.56111 7.9822 9.46278 7.98832 9.46112C8.19887 9.31389 8.43998 9.19556 8.62887 8.79945C8.68443 8.64834 8.70109 8.55667 8.64609 8.32278C8.63121 8.24023 8.59327 8.16357 8.53665 8.10167C8.57054 8.07945 8.66776 8.15334 8.68276 8.10945C8.65468 7.98139 8.59093 7.8639 8.49887 7.77056C8.42387 7.70223 8.3422 7.69445 8.27332 7.75723C8.19554 7.80056 8.17887 7.955 8.21609 8.09056C8.2572 8.19278 8.36887 8.21 8.44887 8.415C8.44887 8.41945 8.47776 8.56834 8.43665 8.62667C8.40387 8.72889 7.97887 9.06278 7.95554 9.07778C7.94387 9.09223 7.94887 9.07056 7.9472 9.015C7.94443 8.94723 7.97443 8.78723 7.96609 8.78611C7.82776 8.87556 7.78165 9.14945 7.75665 9.23056C7.40665 9.47223 7.01054 9.65223 6.78165 9.89778C6.6622 10.0839 7.60276 9.68389 7.7122 9.63556C7.73665 9.65334 7.73387 9.73723 7.79943 9.81223C7.8972 9.94445 8.10387 10.0261 8.30665 9.97556C8.64554 9.85278 8.84165 9.62167 9.04054 9.36556C9.06887 9.32389 9.11332 9.29223 9.15443 9.32389C9.29109 9.63 9.68609 9.84667 10.1955 9.86945C10.3139 9.72556 10.2566 9.65611 10.2089 9.62611C10.2089 9.62167 9.9572 9.52611 9.91887 9.43056C9.89554 9.34389 9.9522 9.26778 10.0655 9.21C10.3928 9.17056 10.7144 9.12667 11.0261 9.02667C11.0294 8.92223 11.09 8.76556 11.1316 8.69778C11.1716 8.62889 11.1933 8.64945 11.1872 8.62445ZM10.3278 7.97334C10.3433 7.94723 10.395 7.94834 10.4433 7.97667C10.4916 8.005 10.5189 8.04889 10.5028 8.075C10.4872 8.10167 10.435 8.1 10.3866 8.07167C10.3383 8.04334 10.3122 8 10.3278 7.97334ZM9.9072 9.02889C9.79498 9.06723 9.6872 9.09723 9.6872 9.25945C9.72887 9.485 9.62998 9.40778 9.57165 9.37667C9.50276 9.32723 9.30887 9.20778 9.28109 8.95C9.27665 8.88834 9.32498 8.83667 9.4022 8.83667C9.51832 8.86834 9.68998 8.87056 9.83887 8.88611C9.96054 8.89389 10.0211 8.98945 9.9072 9.02889ZM6.03665 6.52611C6.15665 6.58389 6.38332 6.55945 6.37332 6.365C6.37332 6.34778 6.36887 6.29 6.3672 6.27445C6.34276 6.21723 6.27609 6.23111 6.26054 6.29056C6.25554 6.31 6.26887 6.34111 6.25165 6.35111C6.24165 6.36111 6.20332 6.355 6.20498 6.30167C6.20498 6.28445 6.1922 6.26612 6.18498 6.25556C6.1772 6.25056 6.17276 6.24889 6.15887 6.24889C6.1422 6.24945 6.1422 6.25389 6.13332 6.26834C6.12943 6.28223 6.12387 6.29667 6.12387 6.31278C6.12165 6.33167 6.11443 6.33834 6.10054 6.34167C6.08498 6.34167 6.08832 6.34334 6.07609 6.335C6.06832 6.32667 6.05887 6.32334 6.05887 6.30945C6.05862 6.29323 6.056 6.27713 6.05109 6.26167C6.04406 6.25352 6.03424 6.24815 6.02165 6.24556C5.95609 6.24556 5.95165 6.32056 5.95554 6.34945C5.94943 6.35445 5.9472 6.48889 6.03665 6.52611Z" fill="white"/>
<path d="M9.72888 7.79277C9.72888 7.77555 9.7161 7.75777 9.70888 7.74666C9.7011 7.74166 9.69666 7.74 9.68277 7.74C9.6661 7.74055 9.66666 7.745 9.65721 7.75944C9.65333 7.77388 9.64777 7.78777 9.64777 7.80388C9.6461 7.82333 9.63832 7.83 9.62444 7.83277C9.60888 7.83277 9.61221 7.83444 9.59944 7.82666C9.59166 7.81833 9.58221 7.815 9.58221 7.80111C9.58196 7.78489 9.57934 7.76879 9.57444 7.75333C9.5674 7.74518 9.55758 7.74 9.54499 7.73777C9.47944 7.73777 9.47499 7.81277 9.47833 7.84111C9.47333 7.84666 9.47055 7.98055 9.55999 8.01833C9.68055 8.07555 9.96666 8.04222 9.89666 7.85722C9.89545 7.8268 9.89342 7.79642 9.89055 7.76611C9.8661 7.70888 9.79888 7.72333 9.78388 7.78222C9.77944 7.80166 9.79277 7.83277 9.77499 7.84277C9.7661 7.85277 9.72721 7.84666 9.72888 7.79277ZM11.6161 7.4C11.7361 7.45777 11.9622 7.43333 11.9522 7.23944C11.951 7.20902 11.949 7.17864 11.9461 7.14833C11.9217 7.09111 11.855 7.10555 11.84 7.16444C11.835 7.18388 11.8483 7.215 11.8305 7.225C11.8205 7.235 11.7822 7.22944 11.7839 7.17555C11.7839 7.15833 11.7711 7.14 11.7639 7.12944C11.7561 7.12444 11.7517 7.12277 11.7372 7.12277C11.7205 7.12388 11.7211 7.12777 11.7117 7.14222C11.7078 7.15666 11.7022 7.17055 11.7022 7.18666C11.7 7.20611 11.6928 7.21277 11.6789 7.21555C11.6633 7.21555 11.6667 7.21722 11.6539 7.20944C11.6461 7.20111 11.6372 7.19777 11.6372 7.18388C11.637 7.16748 11.6344 7.15119 11.6294 7.13555C11.622 7.1274 11.612 7.12222 11.5994 7.12C11.5339 7.12 11.5294 7.195 11.5333 7.22333C11.5294 7.22888 11.5267 7.36277 11.6161 7.4ZM11.6972 6.64888C11.74 6.76888 11.6644 6.88333 11.7094 6.9C11.75 6.91888 11.8078 6.77611 11.8289 6.64444C11.8539 6.53777 11.7778 6.31944 11.67 6.27444C11.6044 6.25888 11.5111 6.29777 11.5411 6.38555C11.5261 6.42777 11.6733 6.57111 11.6972 6.64888ZM12.8055 9.46222C12.8894 9.46277 12.9861 9.27055 13.0272 9.08C13.05 8.81777 13.0117 8.65833 13.005 8.50388C12.9983 8.34944 12.8311 7.175 12.7967 7.05833C12.7561 6.83777 12.9594 7.02888 12.9372 6.90055C12.8667 6.73888 12.6917 6.50388 12.6361 6.36333C12.6028 6.30333 12.6172 6.25 12.5428 6.34777C12.4744 6.57277 12.4505 6.75611 12.4767 6.89611C12.6533 7.81833 12.8344 8.585 12.8055 9.46222ZM14.8922 7.05111C14.9117 7.11111 14.8628 7.305 14.9033 7.32277C14.9405 7.34277 14.9928 7.18888 15.0122 7.04611C15.0228 6.96777 14.9655 6.69444 14.8672 6.64555C14.8072 6.62888 14.7222 6.67055 14.75 6.76611C14.7361 6.81222 14.8705 6.96666 14.8922 7.05111ZM7.60388 9.08222C7.63999 9.09722 7.68944 8.98388 7.70833 8.87888C7.71888 8.82111 7.66333 8.62055 7.56944 8.58444C7.51166 8.57222 7.43277 8.58777 7.45721 8.67333C7.45444 8.71944 7.58499 8.775 7.59277 8.88222C7.61166 8.92666 7.56499 9.06944 7.60388 9.08222ZM5.07277 6.51833C5.0911 6.56444 5.05444 6.71166 5.09277 6.72555C5.12777 6.74111 5.17721 6.62333 5.19555 6.515C5.2061 6.455 5.19777 6.25166 5.05888 6.21C5.00166 6.19722 4.92221 6.22888 4.94832 6.30166C4.93499 6.33611 5.05221 6.45388 5.07277 6.51833ZM7.7961 7.17C7.68999 7.22777 7.64833 7.39888 7.71499 7.49833C7.77666 7.58666 7.87444 7.55388 7.88777 7.55388C7.99221 7.56666 8.05388 7.35833 8.05388 7.35833C8.05388 7.35833 8.05721 7.3 7.93333 7.41055C7.8811 7.42055 7.87444 7.40111 7.86166 7.37111C7.84918 7.31672 7.85483 7.25975 7.87777 7.20888C7.89555 7.15722 7.85555 7.13444 7.7961 7.17ZM8.59721 6.52944C8.61427 6.51878 8.62891 6.50467 8.6402 6.48803C8.65149 6.47138 8.65918 6.45256 8.66277 6.43277C8.67888 6.35166 8.57666 6.47111 8.56388 6.38055C8.5411 6.29666 8.60666 6.26222 8.66888 6.18111C8.6711 6.125 8.66999 6.08555 8.59388 6.13111C8.54055 6.16722 8.43388 6.27722 8.43055 6.40388C8.42721 6.47555 8.41388 6.475 8.4611 6.52055C8.49499 6.57 8.52888 6.565 8.59721 6.52944ZM9.31888 6.57277C9.38777 6.38611 9.38777 6.30722 9.39277 6.22777C9.37166 6.10722 9.28999 6.11111 9.2361 6.245C9.21277 6.29555 9.18555 6.56166 9.18999 6.56166C9.17166 6.64111 9.27277 6.675 9.31888 6.57277ZM13.8578 7.89666C13.8578 7.89666 13.3005 8.29277 13.2872 8.30666C13.2317 8.35555 13.2594 8.52888 13.2872 8.50888C13.3267 8.52444 13.8872 8.14388 13.8761 8.09944C13.9022 8.10055 13.915 7.87666 13.8578 7.89666ZM13.7894 8.97111C13.8267 8.99111 13.925 8.86944 13.9211 8.71777C13.9322 8.63944 13.8928 8.35222 13.795 8.30333C13.735 8.28666 13.655 8.33777 13.6828 8.43277C13.6689 8.47833 13.7517 8.63777 13.7733 8.72222C13.7928 8.78277 13.7489 8.95333 13.7894 8.97111ZM10.6339 9.80222C10.6339 9.80722 10.6811 9.84777 10.7367 9.81555C10.8533 9.77055 10.9267 9.72722 11.09 9.69111C11.1328 9.69055 11.13 9.57555 11.0622 9.57166C10.9739 9.57611 10.8917 9.58055 10.8033 9.65055C10.7489 9.66277 10.74 9.63 10.7278 9.6C10.7144 9.52611 10.7583 9.475 10.7489 9.42C10.7522 9.42333 10.6983 9.37388 10.6433 9.40166C10.6405 9.40166 10.5205 9.48277 10.4822 9.53944C10.4583 9.55777 10.4611 9.57333 10.4683 9.60388C10.4867 9.64611 10.5194 9.63333 10.5561 9.61333C10.605 9.60666 10.6283 9.63888 10.6244 9.69722C10.6011 9.77111 10.6339 9.79833 10.6339 9.80222ZM14.2733 9.89444C14.255 9.92611 14.2428 9.97388 14.2994 9.98888C14.4039 10.0183 14.6444 9.86166 14.6444 9.85888C14.6833 9.82944 14.6705 9.77444 14.6672 9.77444C14.6444 9.74833 14.5933 9.76333 14.5589 9.75944C14.5428 9.75944 14.4883 9.75111 14.5144 9.70333C14.5328 9.67756 14.5474 9.64932 14.5578 9.61944C14.5739 9.58333 14.56 9.55944 14.5011 9.54C14.4417 9.52888 14.4178 9.53444 14.3517 9.54C14.3161 9.54777 14.3039 9.56333 14.2972 9.60666C14.3 9.67222 14.3394 9.66888 14.3805 9.695C14.4044 9.72555 14.42 9.75333 14.3789 9.80277C14.34 9.83888 14.3128 9.85888 14.2733 9.89444ZM14.1667 12.7778H13.3333V12.5C13.3333 12.4263 13.3041 12.3557 13.252 12.3036C13.1999 12.2515 13.1292 12.2222 13.0555 12.2222C12.9819 12.2222 12.9112 12.2515 12.8591 12.3036C12.807 12.3557 12.7778 12.4263 12.7778 12.5V12.7778H6.1111C6.1111 12.7778 6.1111 13.3333 7.77777 13.3333H12.7778V13.6111C12.7778 13.6848 12.807 13.7554 12.8591 13.8075C12.9112 13.8596 12.9819 13.8889 13.0555 13.8889C13.1292 13.8889 13.1999 13.8596 13.252 13.8075C13.3041 13.7554 13.3333 13.6848 13.3333 13.6111V13.3333H13.8889V13.6111C13.8889 13.6848 13.9181 13.7554 13.9702 13.8075C14.0223 13.8596 14.093 13.8889 14.1667 13.8889C14.2403 13.8889 14.311 13.8596 14.3631 13.8075C14.4152 13.7554 14.4444 13.6848 14.4444 13.6111V13.0556C14.4444 12.9819 14.4152 12.9112 14.3631 12.8591C14.311 12.807 14.2403 12.7778 14.1667 12.7778Z" fill="white"/>
</svg>
